<svg width="188" height="48" viewBox="0 0 188 48" fill="none" xmlns="http://www.w3.org/2000/svg">
<path d="M0.0586211 45L3.57862 37.3H4.38162L7.90162 45H7.04362L3.80962 37.773H4.13962L0.905621 45H0.0586211ZM1.44462 42.943L1.68662 42.283H6.16362L6.40562 42.943H1.44462ZM18.0543 45V37.3H18.7253L24.0383 43.988H23.6863V37.3H24.4893V45H23.8183L18.5163 38.312H18.8683V45H18.0543ZM31.4985 45V38.004H28.7925V37.3H35.0185V38.004H32.3125V45H31.4985ZM40.9224 45V38.004H38.2164V37.3H44.4424V38.004H41.7364V45H40.9224ZM54.6217 45V37.3H57.7567C58.578 37.3 59.2967 37.465 59.9127 37.795C60.536 38.1177 61.02 38.5687 61.3647 39.148C61.7093 39.7273 61.8817 40.3947 61.8817 41.15C61.8817 41.9053 61.7093 42.5727 61.3647 43.152C61.02 43.7313 60.536 44.186 59.9127 44.516C59.2967 44.8387 58.578 45 57.7567 45H54.6217ZM55.4357 44.296H57.7127C58.3947 44.296 58.985 44.164 59.4837 43.9C59.9897 43.6287 60.382 43.2583 60.6607 42.789C60.9393 42.3123 61.0787 41.766 61.0787 41.15C61.0787 40.5267 60.9393 39.9803 60.6607 39.511C60.382 39.0417 59.9897 38.675 59.4837 38.411C58.985 38.1397 58.3947 38.004 57.7127 38.004H55.4357V44.296ZM65.3701 45L68.8901 37.3H69.6931L73.2131 45H72.3551L69.1211 37.773H69.4511L66.2171 45H65.3701ZM66.7561 42.943L66.9981 42.283H71.4751L71.7171 42.943H66.7561ZM78.5962 45V38.004H75.8902V37.3H82.1162V38.004H79.4102V45H78.5962ZM84.7979 45L88.3179 37.3H89.1209L92.6409 45H91.7829L88.5489 37.773H88.8789L85.6449 45H84.7979ZM86.1839 42.943L86.4259 42.283H90.9029L91.1449 42.943H86.1839ZM101.562 45L105.082 37.3H105.885L109.405 45H108.547L105.313 37.773H105.643L102.409 45H101.562ZM102.948 42.943L103.19 42.283H107.667L107.909 42.943H102.948ZM113.887 45V37.63L114.239 38.004H112.072V37.3H114.679V45H113.887ZM120.862 45V37.63L121.214 38.004H119.047V37.3H121.654V45H120.862ZM129.013 45V42.14L129.2 42.646L125.933 37.3H126.802L129.673 41.997H129.211L132.082 37.3H132.896L129.629 42.646L129.816 42.14V45H129.013ZM143.038 45V37.3H146.173C146.994 37.3 147.713 37.465 148.329 37.795C148.952 38.1177 149.436 38.5687 149.781 39.148C150.125 39.7273 150.298 40.3947 150.298 41.15C150.298 41.9053 150.125 42.5727 149.781 43.152C149.436 43.7313 148.952 44.186 148.329 44.516C147.713 44.8387 146.994 45 146.173 45H143.038ZM143.852 44.296H146.129C146.811 44.296 147.401 44.164 147.9 43.9C148.406 43.6287 148.798 43.2583 149.077 42.789C149.355 42.3123 149.495 41.766 149.495 41.15C149.495 40.5267 149.355 39.9803 149.077 39.511C148.798 39.0417 148.406 38.675 147.9 38.411C147.401 38.1397 146.811 38.004 146.129 38.004H143.852V44.296ZM155.852 40.743H159.922V41.436H155.852V40.743ZM155.94 44.296H160.571V45H155.126V37.3H160.406V38.004H155.94V44.296ZM165.484 45V37.3H166.155L169.675 43.306H169.323L172.81 37.3H173.481V45H172.7V38.521H172.887L169.675 44.021H169.29L166.056 38.521H166.265V45H165.484ZM182.356 45.066C181.777 45.066 181.238 44.9707 180.739 44.78C180.248 44.582 179.819 44.307 179.452 43.955C179.093 43.5957 178.81 43.1813 178.605 42.712C178.407 42.2353 178.308 41.7147 178.308 41.15C178.308 40.5853 178.407 40.0683 178.605 39.599C178.81 39.1223 179.093 38.708 179.452 38.356C179.819 37.9967 180.248 37.7217 180.739 37.531C181.23 37.333 181.769 37.234 182.356 37.234C182.935 37.234 183.471 37.333 183.962 37.531C184.453 37.7217 184.879 37.993 185.238 38.345C185.605 38.697 185.887 39.1113 186.085 39.588C186.29 40.0647 186.393 40.5853 186.393 41.15C186.393 41.7147 186.29 42.2353 186.085 42.712C185.887 43.1887 185.605 43.603 185.238 43.955C184.879 44.307 184.453 44.582 183.962 44.78C183.471 44.9707 182.935 45.066 182.356 45.066ZM182.356 44.34C182.818 44.34 183.243 44.263 183.632 44.109C184.028 43.9477 184.369 43.724 184.655 43.438C184.948 43.1447 185.176 42.8073 185.337 42.426C185.498 42.0373 185.579 41.612 185.579 41.15C185.579 40.688 185.498 40.2663 185.337 39.885C185.176 39.4963 184.948 39.159 184.655 38.873C184.369 38.5797 184.028 38.356 183.632 38.202C183.243 38.0407 182.818 37.96 182.356 37.96C181.894 37.96 181.465 38.0407 181.069 38.202C180.673 38.356 180.328 38.5797 180.035 38.873C179.749 39.159 179.522 39.4963 179.353 39.885C179.192 40.2663 179.111 40.688 179.111 41.15C179.111 41.6047 179.192 42.0263 179.353 42.415C179.522 42.8037 179.749 43.1447 180.035 43.438C180.328 43.724 180.673 43.9477 181.069 44.109C181.465 44.263 181.894 44.34 182.356 44.34Z" fill="white"/>
<path d="M25.8709 30H16.4491V29.0508H18.9452L16.3084 22.3008H9.31235L6.7811 29.0508H8.74985C8.89047 29.0508 9.01938 29.0625 9.13657 29.0859C9.44125 29.1328 9.5936 29.4375 9.5936 30H3.12485V29.0508H5.37485L13.0741 8.90625H15.6756L23.9725 29.0508H25.0272C25.1678 29.0508 25.2967 29.0625 25.4139 29.0859C25.7186 29.1328 25.8709 29.4375 25.8709 30ZM15.8866 21.2461L12.7577 13.1602L9.73422 21.2461H15.8866ZM48.8328 9.85547V8.90625H55.9344V9.85547H53.1219V29.8242L51.118 30.1758L37.5828 14.3906V29.0508H39.6219C40.1141 29.0977 40.4305 29.4141 40.5711 30H33.2938V29.0508H36.1063V9.85547H33.2938V8.90625H39.2352L51.6453 23.4609V9.85547H48.8328ZM74.552 15.6562H73.5325L72.7591 13.2305C72.6888 13.0195 72.6067 12.8086 72.513 12.5977C71.7864 10.7695 70.4622 9.85547 68.5403 9.85547H64.5677V18.6094H71.3177V19.6641H64.5677V29.0508H68.5403C68.9856 29.0508 69.4075 29.0039 69.8059 28.9102C71.1419 28.5586 72.1145 27.4805 72.7239 25.6758L73.5325 23.25H74.552L74.4114 30H56.8333V29.0508H59.6458V9.85547H56.8333V8.90625H74.4114L74.552 15.6562ZM99.0759 30H98.3728C97.9744 30 97.6463 29.9297 97.3884 29.7891C96.9666 29.5547 96.4744 28.7227 95.9119 27.293L92.115 17.4141L87.4744 30H86.7713C86.3728 30 86.0447 29.9297 85.7869 29.7891C85.365 29.5547 84.8728 28.7227 84.3103 27.293L77.5603 9.85547H75.8025V8.90625H85.3298V9.85547H82.5173L88.0369 25.2188L91.4822 15.832L88.8103 8.90625H96.9666V9.85547L94.1541 9.82031L99.6033 24.9023L104.56 9.85547H101.748V8.90625H107.549V9.85547H105.791L99.0759 30ZM115.147 8.90625H125.518C128.12 8.90625 130.393 9.52734 132.339 10.7695C135.292 12.6914 136.768 15.6094 136.768 19.5234C136.768 22.5938 135.737 25.1016 133.675 27.0469C131.565 29.0156 128.882 30 125.624 30H115.147V29.0508H117.96V9.85547H115.147V8.90625ZM125.624 9.85547H122.882V29.0508H125.553C126.655 29.0508 127.581 28.8281 128.331 28.3828C130.276 27.2344 131.249 24.2227 131.249 19.3477C131.249 16.9102 131.014 14.9531 130.546 13.4766C129.725 11.0625 128.085 9.85547 125.624 9.85547ZM160.765 30H151.343V29.0508H153.839L151.202 22.3008H144.206L141.675 29.0508H143.644C143.784 29.0508 143.913 29.0625 144.03 29.0859C144.335 29.1328 144.488 29.4375 144.488 30H138.019V29.0508H140.269L147.968 8.90625H150.57L158.866 29.0508H159.921C160.062 29.0508 160.191 29.0625 160.308 29.0859C160.613 29.1328 160.765 29.4375 160.765 30ZM150.78 21.2461L147.652 13.1602L144.628 21.2461H150.78ZM176.64 30H165.742V29.0508H168.73V21.0703L162.367 9.85547H160.715V8.90625H170.558V9.85547H167.886L173.019 19.5938L177.765 9.85547H174.953V8.90625H181.14C181.093 9.39844 180.777 9.71484 180.191 9.85547C179.465 9.87891 178.879 10.207 178.433 10.8398L173.652 20.8242V29.0508H175.691C176.183 29.0977 176.5 29.4141 176.64 30ZM186.996 27.7148C186.996 28.1367 186.902 28.5352 186.715 28.9102C186.246 29.7539 185.508 30.1758 184.5 30.1758C184.102 30.1758 183.727 30.082 183.375 29.8945C182.485 29.4492 182.039 28.7227 182.039 27.7148C182.039 27.3164 182.133 26.9297 182.32 26.5547C182.789 25.6641 183.516 25.2188 184.5 25.2188C184.899 25.2188 185.285 25.3125 185.66 25.5C186.551 25.9922 186.996 26.7305 186.996 27.7148Z" fill="white"/>
</svg>
