<svg width="9" height="16" viewBox="0 0 9 16" fill="none" xmlns="http://www.w3.org/2000/svg">
<path d="M5.37567 15.9873C5.29629 15.9905 5.24548 15.9968 5.19468 15.9968C4.10875 15.9968 3.026 15.9937 1.94007 16C1.78766 16 1.74638 15.9587 1.74638 15.8063C1.74955 13.2788 1.74955 10.7482 1.74955 8.22068C1.74955 8.154 1.74955 8.08732 1.74955 8.00159C1.15896 8.00159 0.584243 8.00159 0 8.00159C0 7.09983 0 6.21394 0 5.30264C0.0603294 5.30264 0.117483 5.30264 0.171462 5.30264C0.647747 5.30264 1.12403 5.29947 1.60032 5.30582C1.72098 5.30582 1.75273 5.27089 1.75273 5.15341C1.74638 4.44533 1.74638 3.73408 1.75273 3.026C1.7559 2.53067 1.83528 2.04803 2.0639 1.60032C2.39095 0.968454 2.90851 0.558849 3.56261 0.30483C4.09605 0.0952649 4.65807 0.0190593 5.22326 0.00953364C6.14407 -0.00316729 7.06489 0.00318317 7.98571 7.93811e-06C8.07144 7.93811e-06 8.14129 -0.0031673 8.14129 0.117492C8.13812 0.99068 8.13812 1.86387 8.13812 2.73706C8.13812 2.74658 8.13494 2.75611 8.12224 2.79739C8.06826 2.79739 8.00793 2.79739 7.9476 2.79739C7.37606 2.79739 6.80452 2.79421 6.23298 2.79739C5.90276 2.79739 5.63604 2.93075 5.46775 3.21969C5.41695 3.30542 5.38519 3.41656 5.38519 3.51816C5.37567 4.05795 5.38519 4.59774 5.37884 5.13753C5.37884 5.26454 5.41695 5.29947 5.54078 5.29947C6.33459 5.29312 7.1284 5.29629 7.9222 5.29629C7.98571 5.29629 8.04604 5.29629 8.15399 5.29629C8.04286 6.20441 7.9349 7.09348 7.82377 7.99207C6.99821 7.99207 6.19488 7.99207 5.37567 7.99207C5.37567 10.6624 5.37567 13.3169 5.37567 15.9873Z" fill="white"/>
</svg>
