<svg width="17" height="16" viewBox="0 0 17 16" fill="none" xmlns="http://www.w3.org/2000/svg">
<path d="M16.1371 7.99733C16.1371 9.11895 16.1145 10.2438 16.1435 11.3654C16.1919 13.3508 14.9445 14.885 13.3556 15.5682C12.7174 15.8422 12.047 15.9872 11.3541 15.9872C9.18499 15.9905 7.01267 16.0195 4.84356 15.9776C3.20949 15.9453 1.86548 15.262 0.901796 13.9148C0.39578 13.2058 0.154053 12.4 0.154053 11.5266C0.154053 9.21564 0.154053 6.90795 0.154053 4.59703C0.154053 2.71156 1.07262 1.39334 2.70347 0.53601C3.41254 0.165361 4.18284 0.00743271 4.98538 0.00420968C7.09002 0.00420968 9.19788 -0.00868246 11.3025 0.0106557C12.9366 0.0235479 14.2999 0.648816 15.3055 1.96381C15.8663 2.69866 16.1371 3.5431 16.1371 4.47133C16.1371 5.64452 16.1371 6.82092 16.1371 7.99733ZM1.34335 7.99733C1.34335 9.18018 1.34335 10.3598 1.34335 11.5427C1.34335 12.0712 1.46583 12.5676 1.73978 13.0156C2.45852 14.192 3.54468 14.7657 4.89191 14.7883C7.05456 14.8205 9.22044 14.8012 11.3863 14.7947C11.9181 14.7947 12.4338 14.6851 12.914 14.4563C14.2226 13.831 14.9542 12.8351 14.9478 11.3396C14.9349 9.05126 14.9445 6.76291 14.9445 4.47456C14.9445 3.82673 14.7608 3.23369 14.3773 2.71156C13.636 1.70919 12.6111 1.21607 11.3863 1.20318C9.22689 1.17739 7.06746 1.19351 4.90803 1.19673C4.44713 1.19673 4.00235 1.2902 3.57047 1.45135C2.38439 1.89291 1.28211 3.0113 1.33368 4.65827C1.37236 5.77344 1.34335 6.88538 1.34335 7.99733Z" fill="white"/>
<path d="M8.16333 11.4137C6.08448 11.4137 4.4085 9.75707 4.40528 7.69433C4.40206 5.66382 6.09092 4.00074 8.15689 4.00074C10.2293 3.99751 11.9117 5.65738 11.9149 7.704C11.9149 9.7474 10.2357 11.4105 8.16333 11.4137ZM8.16333 10.2212C9.57825 10.2212 10.7256 9.0899 10.7224 7.69755C10.7192 6.3181 9.5718 5.19004 8.16333 5.19004C6.74842 5.19004 5.59458 6.31487 5.59458 7.704C5.5978 9.09635 6.74842 10.2244 8.16333 10.2212Z" fill="white"/>
<path d="M12.35 2.8728C12.7851 2.8728 13.1397 3.24345 13.1397 3.6979C13.1365 4.15235 12.7787 4.51977 12.3436 4.51655C11.9149 4.51333 11.5636 4.1459 11.5636 3.70112C11.5604 3.24667 11.9149 2.8728 12.35 2.8728Z" fill="white"/>
</svg>
