<svg width="16" height="16" viewBox="0 0 16 16" fill="none" xmlns="http://www.w3.org/2000/svg">
<g clip-path="url(#clip0_2035_442)">
<path d="M0.03125 1.65619C0.109375 1.65619 0.084375 1.59369 0.090625 1.55307C0.184375 0.906193 0.51875 0.434318 1.14375 0.231193C1.64688 0.068693 2.17188 0.0874429 2.64063 0.356193C2.93438 0.528068 3.15938 0.793693 3.27813 1.12182C3.36563 1.36557 3.43125 1.61869 3.40313 1.87807C3.3375 2.53119 3.04375 3.07494 2.325 3.32807C1.78125 3.51557 1.25313 3.44682 0.75625 3.14994C0.725 3.03744 0.646875 2.98119 0.534375 2.96244C0.53125 2.91869 0.525 2.87494 0.465625 2.87494C0.240625 2.62494 0.134375 2.32182 0.090625 1.99369C0.084375 1.95619 0.1 1.90307 0.03125 1.90619C0.03125 1.82182 0.03125 1.74057 0.03125 1.65619Z" fill="white"/>
<path d="M8.63127 6.75311C8.76565 6.67186 8.81877 6.55311 8.88752 6.45624C9.22815 5.98749 9.65002 5.62499 10.175 5.36561C10.8938 5.01249 11.6563 4.97499 12.425 5.04686C13.0156 5.09999 13.575 5.29999 14.0844 5.62499C14.6906 6.01249 15.125 6.54999 15.4219 7.19374C15.6031 7.58436 15.7219 7.99999 15.7938 8.43124C15.8594 8.83436 15.9094 9.23124 15.9094 9.64061C15.9063 11.6719 15.9063 13.7031 15.9125 15.7344C15.9125 15.8781 15.8719 15.9156 15.7313 15.9125C14.7719 15.9062 13.8156 15.9062 12.8563 15.9125C12.7156 15.9125 12.6844 15.8719 12.6844 15.7375C12.6875 13.8219 12.6969 11.9031 12.6813 9.98749C12.6781 9.55311 12.6188 9.12186 12.3938 8.72499C12.1938 8.37499 11.9156 8.12499 11.55 7.98124C11.0594 7.78749 10.5531 7.74999 10.0406 7.89374C9.5219 8.03749 9.16252 8.37811 8.90627 8.84061C8.76252 9.09999 8.71252 9.37186 8.6719 9.66249C8.63127 9.97499 8.63752 10.2812 8.63752 10.5906C8.63127 12.3 8.63127 14.0062 8.63752 15.7156C8.63752 15.8719 8.60002 15.9156 8.44065 15.9125C7.49377 15.9031 6.54377 15.9062 5.5969 15.9125C5.46565 15.9125 5.41877 15.8719 5.4219 15.75C5.42502 15.6625 5.43127 15.575 5.43127 15.4875C5.43127 12.1906 5.4344 8.89374 5.42815 5.59686C5.42815 5.45936 5.45627 5.40936 5.60627 5.40936C6.5594 5.41561 7.51252 5.41561 8.46565 5.40936C8.59377 5.40936 8.63752 5.44061 8.6344 5.57499C8.62502 5.95624 8.63127 6.34061 8.63127 6.75311Z" fill="white"/>
<path d="M3.40627 5.50308C3.40627 5.61245 3.4094 5.72183 3.4094 5.8312C3.4094 9.12183 3.4094 12.4125 3.4094 15.7062C3.4094 15.9062 3.4094 15.9062 3.20627 15.9062C2.21252 15.9062 1.21565 15.9062 0.221899 15.9062C0.218774 15.8281 0.215649 15.75 0.215649 15.6718C0.215649 13.2093 0.215649 10.75 0.215649 8.28745C0.215649 7.40933 0.218774 6.52808 0.212524 5.64995C0.212524 5.53745 0.240649 5.49683 0.359399 5.49683C1.37502 5.50308 2.39065 5.49995 3.40627 5.50308Z" fill="white"/>
<path d="M3.4063 5.50305C2.39067 5.50305 1.37817 5.50305 0.362549 5.4968C0.243799 5.4968 0.215674 5.5343 0.215674 5.64993C0.218799 6.52805 0.215674 7.40618 0.215674 8.28743C0.215674 10.7499 0.215674 13.2093 0.215674 15.6718C0.215674 15.7499 0.218799 15.8281 0.221924 15.9062C0.168799 15.9093 0.128174 15.8968 0.128174 15.8343C0.128174 15.7937 0.128174 15.7499 0.128174 15.7093C0.128174 12.3718 0.128174 9.03743 0.128174 5.69993C0.128174 5.46243 0.150049 5.44055 0.384424 5.44055C1.33755 5.44055 2.29067 5.44055 3.24067 5.44368C3.29692 5.44055 3.3813 5.3968 3.4063 5.50305Z" fill="#E0E0E0"/>
<path d="M0.534424 2.96558C0.646924 2.98433 0.725049 3.04058 0.756299 3.15308C0.659424 3.11558 0.587549 3.05308 0.534424 2.96558Z" fill="#E0E0E0"/>
<path d="M0.465576 2.87817C0.524951 2.87817 0.528076 2.92192 0.534326 2.96567C0.468701 2.9688 0.468701 2.92505 0.465576 2.87817Z" fill="#E0E0E0"/>
</g>
<defs>
<clipPath id="clip0_2035_442">
<rect width="16" height="16" fill="white"/>
</clipPath>
</defs>
</svg>
